<svg xmlns="http://www.w3.org/2000/svg" xmlns:xlink="http://www.w3.org/1999/xlink" height="800" width="1200" viewBox="-16.203495 -5.3853 140.43029 32.3118"><defs><radialGradient gradientUnits="userSpaceOnUse" gradientTransform="matrix(60.742 0 0 60.743 8329.7 18876)" r=".4894" cy="-310.59" cx="-136.11" id="b"><stop offset="0" stop-color="#fff"/><stop offset=".0598" stop-color="#E7F6FD"/><stop offset=".1829" stop-color="#AFE2FA"/><stop offset=".3589" stop-color="#37C6F4"/><stop offset=".544" stop-color="#00AEEF"/><stop offset="1" stop-color="#002F54"/></radialGradient><clipPath id="c"><use xlink:href="#a" overflow="visible" height="100%" width="100%"/></clipPath><path d="M49.676 33.267c2.357-.029 4.594-.374 6.574-1.039.498-.168.974-.354 1.424-.555-.551 1.345-1.36 2.467-2.415 3.301-2.081 1.532-4.536 2.583-7.201 2.984.666-1.152 1.204-2.78 1.618-4.691m-11.093 3.268c-.049-.041-.102-.079-.162-.107-.927-.452-1.302-2.519-.819-5.68 1.782.801 3.722 1.436 5.761 1.871 1.545.33 3.085.534 4.59.613-.738 3.208-1.684 4.893-2.311 4.893-.04 0-.079.007-.117.013-2.484-.017-4.838-.588-6.942-1.603m-8.607-10.219a8.731 8.731 0 01-.269-1.657c.558.794 1.237 1.568 2.046 2.316 1.222 1.128 2.672 2.138 4.288 3.004-.33 1.846-.423 3.519-.215 4.867-2.785-2.106-4.869-5.087-5.85-8.53m20.751-4.483c0-.652-.01-1.307-.029-1.959 2.077-.138 4-.678 5.574-1.583 1.458 2.884 2.24 5.927 2.234 8.799-.001.832-.073 1.623-.205 2.37-.75.459-1.613.857-2.584 1.185-1.724.58-3.666.896-5.725.949.496-2.967.735-6.412.735-9.761m-7.014 9.155c-2.068-.443-4.022-1.1-5.791-1.931.581-2.614 1.663-5.781 3.377-9.297.249-.509.503-1.01.762-1.5 1.199.538 2.504.965 3.872 1.257 1.039.223 2.079.344 3.096.379.019.626.027 1.271.027 1.937 0 3.931-.314 7.194-.768 9.744-1.492-.065-3.029-.26-4.575-.589M32.887 25.75c-1.418-1.31-2.393-2.698-2.89-4.076.394-1.544 1.156-3.094 2.277-4.579 1.063-1.408 2.386-2.676 3.903-3.766.438.791 1.051 1.563 1.832 2.295.742.695 1.607 1.325 2.566 1.876a53.19 53.19 0 00-.774 1.528c-1.481 3.035-2.69 6.292-3.4 9.246-1.319-.743-2.504-1.589-3.514-2.524m16.706-15.513c1.898 1.413 3.638 3.236 5.093 5.368.276.404.536.815.783 1.23-1.333.771-3.021 1.232-4.84 1.361-.154-2.881-.495-5.653-1.036-7.959m-3.31 7.648c-1.208-.257-2.356-.628-3.414-1.093 1.558-2.725 3.261-5.094 4.942-6.855.525 2.066.965 4.844 1.151 8.288-.885-.037-1.785-.148-2.679-.34m-7.133-3.479c-.691-.646-1.215-1.32-1.568-1.997 1.564-.941 3.295-1.708 5.139-2.263 1.097-.33 2.207-.574 3.314-.743-1.598 1.791-3.194 4.066-4.657 6.636-.836-.483-1.585-1.03-2.228-1.633m-3.59-5.319c-.023.084-.047.17-.066.258-.169.787-.149 1.594.049 2.394-1.796 1.239-3.358 2.704-4.602 4.35-.379.501-.718 1.013-1.025 1.528.925-3.418 2.937-6.392 5.644-8.53m1.566.606c.185-.866.706-1.64 1.511-2.28 1.949-.582 4.216-.442 6.599.43-1.003.174-2.006.406-2.995.705-1.841.552-3.579 1.308-5.171 2.226-.036-.365-.019-.727.056-1.081m13.543-2.199c.573-.371 1.101-.625 1.542-.73.837.335 1.667.764 2.454 1.306-1.263-.316-2.606-.508-3.996-.576m-2.812-1.787c.677.076 1.4.192 2.143.365-.465.25-.947.562-1.438.937-.218-.493-.453-.927-.705-1.302m-1.809.655c-.755-.289-1.501-.513-2.237-.673.59-.066 1.187-.104 1.795-.104.284.003.633.345.998 1.006-.185-.079-.37-.157-.556-.229m-18.367 15.5c0 1.706.245 3.355.692 4.92.027.105.053.21.084.315.006.019.015.037.022.058 2.264 7.321 9.096 12.654 17.15 12.654 3.726 0 7.189-1.142 10.061-3.092.029-.017.058-.031.084-.049.17-.116.335-.238.495-.366 3.303-2.439 5.741-5.982 6.769-10.081.058-.188.108-.38.15-.574.01-.047.013-.091.015-.137.245-1.179.373-2.399.373-3.647 0-2.422-.474-4.773-1.411-6.985-.18-.425-.669-.624-1.094-.443-.425.178-.623.669-.444 1.093.849 2.005 1.279 4.137 1.279 6.335 0 1.347-.167 2.655-.478 3.908-.247.79-.68 1.521-1.279 2.185.015-.283.024-.569.025-.862.007-3.202-.879-6.584-2.521-9.763 1.204-1.034 1.973-2.312 2.236-3.741.084-.453-.216-.888-.669-.972-.454-.085-.889.215-.973.669-.174.945-.665 1.812-1.433 2.548-.239-.395-.487-.786-.75-1.171-1.465-2.148-3.206-4.006-5.111-5.489 2.515.166 4.839.775 6.711 1.821.293.167.683.162.958-.067.354-.295.402-.823.105-1.177-2.689-3.761-7.34-5.836-13.1-5.836-9.894-.001-17.946 8.05-17.946 17.946" id="a"/></defs><path fill="url(#b)" clip-path="url(#c)" transform="translate(-16.6128 -2.3502) scale(.60015)" d="M27.681 3.915h35.895v35.894H27.681z"/><path d="M23.9132 4.8018h5.4386v1.1157h-1.9973v5.5958h-1.4422V5.9175h-1.9985V4.8018zm6.202 6.711V4.8013h1.4416v2.6491h2.538v-2.649h1.459v6.7114h-1.4404V8.5655h-2.5567v2.9473zm6.613-6.711h4.5v1.1157h-3.0578v1.5712h2.8633v1.1151h-2.8633v1.7945h3.1604v1.1151h-4.602V4.802zm11.659 0h1.6258l1.1715 5.048h.0182l1.0791-5.048h1.3755l-1.7104 6.7115h-1.5982L49.1407 6.4h-.0182l-1.303 5.1133h-1.6348l-1.636-6.7115h1.4878l1.0311 5.048h.0205zm5.76 3.356c0-1.9799 1.0035-3.4965 3.2246-3.4965 2.2206 0 3.2258 1.516 3.2258 3.4965 0 1.9805-1.0052 3.4941-3.2258 3.4941-2.2224 0-3.2246-1.5142-3.2246-3.494zm1.5322 0c0 1.1511.2701 2.4528 1.6918 2.4528 1.4224 0 1.6924-1.3017 1.6924-2.4528 0-1.1535-.27-2.4558-1.6924-2.4558-1.4218 0-1.6918 1.303-1.6918 2.4558zm7.3078 3.355h-1.4416V4.8013h2.8531c1.1535.0091 2.334.3805 2.334 1.7482 0 .8732-.567 1.4506-1.3942 1.6264v.0182c1.1067.1206 1.1067.7988 1.2273 1.729.066.4279.1207 1.2183.3901 1.5886h-1.5898c-.12-.5942-.186-1.1985-.2502-1.8035-.038-.371-.1313-.8823-.6044-.9003h-1.5238v2.7037zm0-3.8206h1.207c.6337-.0113 1.0046-.3253 1.0046-.9212 0-.5942-.3708-.8457-1.0047-.8546h-1.2069zm4.85 3.8206V4.8013h1.4416v5.5964h2.9096v1.1151zm5.13-6.711h2.2878c2.0904-.0181 3.3921 1.0221 3.3921 3.3561 0 2.3328-1.3017 3.3735-3.392 3.355h-2.2879zm1.4404 5.5958h.7436c1.7116.0182 1.9631-1.172 1.9631-2.2398 0-1.0695-.2514-2.259-1.963-2.2404h-.7437zm7.8896 1.1152V4.8013h2.5195c1.1991-.0744 2.4264.4285 2.4264 1.7387 0 .734-.5125 1.246-1.181 1.468v.0182c.8467.1771 1.4775.7628 1.4775 1.747 0 1.3294-1.6744 1.8138-2.7049 1.7387zm2.5657-1.1157c.6788 0 1.1433-.1211 1.1433-.8924 0-.7712-.4639-.8924-1.1433-.8924H83.737v1.7855h1.126zm0-2.8993c.6044 0 .938-.2514.938-.7904 0-.5401-.3342-.7898-.938-.7898H83.737v1.5808zm3.1243 4.015l2.427-6.7115h1.7105l2.3322 6.7115h-1.4488l-.4837-1.4224h-2.6587l-.5029 1.4224zm4.1741-2.5374l-.92-2.8633h-.018l-.985 2.8633zm7.0559 2.5374L96.5675 5.935l-.018.0182v5.5586H95.202V4.8003h2.1372l2.558 5.2802.018-.0204V4.799h1.348v6.712zm4.66-3.811h.0181l2.2314-2.9005h1.6822l-2.4636 3.0026 2.678 3.709h-1.794l-2.3334-3.421h-.0182v3.421h-1.4404V4.8012h1.4404v2.9005z" fill="#002f54"/></svg>